<mxfile host="app.diagrams.net" modified="2023-04-05T17:29:27.527Z" agent="Mozilla/5.0 (Windows NT 10.0; Win64; x64) AppleWebKit/537.36 (KHTML, like Gecko) Chrome/111.0.0.0 Safari/537.36" etag="wxbK6ozUAh7XuCEgSt8g" version="21.1.4" type="device">
  <diagram id="gQ4bxawv22ZL6m5ORLgO" name="Pagina-1">
    <mxGraphModel dx="3915" dy="3236" grid="0" gridSize="10" guides="1" tooltips="1" connect="1" arrows="1" fold="1" page="1" pageScale="1" pageWidth="827" pageHeight="1169" math="0" shadow="0">
      <root>
        <mxCell id="0" />
        <mxCell id="1" parent="0" />
        <mxCell id="hfwpZv5Ivynmt4T3Qo2l-21" value="" style="edgeStyle=orthogonalEdgeStyle;rounded=0;orthogonalLoop=1;jettySize=auto;html=1;" parent="1" source="_CCxvdS052Tjwk7bX98a-16" target="_CCxvdS052Tjwk7bX98a-17" edge="1">
          <mxGeometry relative="1" as="geometry" />
        </mxCell>
        <mxCell id="_CCxvdS052Tjwk7bX98a-16" value="User Diagnosis" style="rounded=1;whiteSpace=wrap;html=1;fontSize=12;glass=0;strokeWidth=1;shadow=0;fontStyle=1" parent="1" vertex="1">
          <mxGeometry x="-1320" y="-2280" width="120" height="40" as="geometry" />
        </mxCell>
        <mxCell id="hfwpZv5Ivynmt4T3Qo2l-18" value="No" style="edgeStyle=orthogonalEdgeStyle;rounded=0;orthogonalLoop=1;jettySize=auto;html=1;" parent="1" source="_CCxvdS052Tjwk7bX98a-17" target="_CCxvdS052Tjwk7bX98a-39" edge="1">
          <mxGeometry relative="1" as="geometry" />
        </mxCell>
        <mxCell id="hfwpZv5Ivynmt4T3Qo2l-22" value="Yes" style="edgeStyle=orthogonalEdgeStyle;rounded=0;orthogonalLoop=1;jettySize=auto;html=1;" parent="1" source="_CCxvdS052Tjwk7bX98a-17" target="_CCxvdS052Tjwk7bX98a-38" edge="1">
          <mxGeometry relative="1" as="geometry" />
        </mxCell>
        <mxCell id="_CCxvdS052Tjwk7bX98a-17" value="&lt;span style=&quot;font-size: 11px;&quot;&gt;Are there observed symptoms?&lt;/span&gt;" style="rhombus;whiteSpace=wrap;html=1;" parent="1" vertex="1">
          <mxGeometry x="-1310" y="-2210" width="100" height="80" as="geometry" />
        </mxCell>
        <mxCell id="_CCxvdS052Tjwk7bX98a-20" value="&lt;span style=&quot;font-size: 11px;&quot;&gt;Are there treatments?&lt;/span&gt;" style="rhombus;whiteSpace=wrap;html=1;" parent="1" vertex="1">
          <mxGeometry x="-1151" y="-1827" width="100" height="80" as="geometry" />
        </mxCell>
        <mxCell id="hfwpZv5Ivynmt4T3Qo2l-26" value="" style="edgeStyle=orthogonalEdgeStyle;rounded=0;orthogonalLoop=1;jettySize=auto;html=1;exitX=0.5;exitY=1;exitDx=0;exitDy=0;" parent="1" source="_CCxvdS052Tjwk7bX98a-22" target="_CCxvdS052Tjwk7bX98a-31" edge="1">
          <mxGeometry relative="1" as="geometry" />
        </mxCell>
        <mxCell id="_CCxvdS052Tjwk7bX98a-22" value="Match observed symptoms with possible causes" style="rounded=1;whiteSpace=wrap;html=1;fontSize=12;glass=0;strokeWidth=1;shadow=0;fontStyle=0" parent="1" vertex="1">
          <mxGeometry x="-1320" y="-1907" width="120" height="40" as="geometry" />
        </mxCell>
        <mxCell id="_CCxvdS052Tjwk7bX98a-23" value="Show treatment" style="rounded=1;whiteSpace=wrap;html=1;fontSize=12;glass=0;strokeWidth=1;shadow=0;fontStyle=0" parent="1" vertex="1">
          <mxGeometry x="-1161" y="-1707" width="120" height="40" as="geometry" />
        </mxCell>
        <mxCell id="_CCxvdS052Tjwk7bX98a-24" value="Yes" style="rounded=0;html=1;jettySize=auto;orthogonalLoop=1;fontSize=11;endArrow=classic;endFill=1;endSize=8;strokeWidth=1;shadow=0;labelBackgroundColor=default;edgeStyle=orthogonalEdgeStyle;" parent="1" source="_CCxvdS052Tjwk7bX98a-20" target="_CCxvdS052Tjwk7bX98a-23" edge="1">
          <mxGeometry x="-0.5" relative="1" as="geometry">
            <mxPoint as="offset" />
            <mxPoint x="-1040" y="-1977" as="sourcePoint" />
            <mxPoint x="-910" y="-1997" as="targetPoint" />
          </mxGeometry>
        </mxCell>
        <mxCell id="_CCxvdS052Tjwk7bX98a-27" value="No condition" style="rounded=1;whiteSpace=wrap;html=1;fontSize=12;glass=0;strokeWidth=1;shadow=0;fontStyle=0" parent="1" vertex="1">
          <mxGeometry x="-1161" y="-2000" width="120" height="40" as="geometry" />
        </mxCell>
        <mxCell id="_CCxvdS052Tjwk7bX98a-29" value="No treatment" style="rounded=1;whiteSpace=wrap;html=1;fontSize=12;glass=0;strokeWidth=1;shadow=0;fontStyle=0" parent="1" vertex="1">
          <mxGeometry x="-1011" y="-1707" width="120" height="40" as="geometry" />
        </mxCell>
        <mxCell id="_CCxvdS052Tjwk7bX98a-30" value="No" style="rounded=0;html=1;jettySize=auto;orthogonalLoop=1;fontSize=11;endArrow=classic;endFill=1;endSize=8;strokeWidth=1;shadow=0;labelBackgroundColor=default;entryX=0.5;entryY=0;entryDx=0;entryDy=0;exitX=1;exitY=0.5;exitDx=0;exitDy=0;edgeStyle=orthogonalEdgeStyle;" parent="1" source="_CCxvdS052Tjwk7bX98a-20" target="_CCxvdS052Tjwk7bX98a-29" edge="1">
          <mxGeometry x="-0.7801" relative="1" as="geometry">
            <mxPoint as="offset" />
            <mxPoint x="-995" y="-1807" as="sourcePoint" />
            <mxPoint x="-1035" y="-1717" as="targetPoint" />
          </mxGeometry>
        </mxCell>
        <mxCell id="hfwpZv5Ivynmt4T3Qo2l-27" value="No" style="edgeStyle=orthogonalEdgeStyle;rounded=0;orthogonalLoop=1;jettySize=auto;html=1;" parent="1" source="_CCxvdS052Tjwk7bX98a-31" target="_CCxvdS052Tjwk7bX98a-20" edge="1">
          <mxGeometry x="-0.322" relative="1" as="geometry">
            <mxPoint as="offset" />
          </mxGeometry>
        </mxCell>
        <mxCell id="_CCxvdS052Tjwk7bX98a-31" value="&lt;span style=&quot;font-size: 11px;&quot;&gt;Is a deficiency problem?&lt;/span&gt;" style="rhombus;whiteSpace=wrap;html=1;" parent="1" vertex="1">
          <mxGeometry x="-1310" y="-1827" width="100" height="80" as="geometry" />
        </mxCell>
        <mxCell id="_CCxvdS052Tjwk7bX98a-32" value="Yes" style="rounded=0;html=1;jettySize=auto;orthogonalLoop=1;fontSize=11;endArrow=classic;endFill=1;endSize=8;strokeWidth=1;shadow=0;labelBackgroundColor=default;exitX=0.5;exitY=1;exitDx=0;exitDy=0;" parent="1" source="_CCxvdS052Tjwk7bX98a-31" target="_CCxvdS052Tjwk7bX98a-33" edge="1">
          <mxGeometry x="-0.5" relative="1" as="geometry">
            <mxPoint as="offset" />
            <mxPoint x="-1238" y="-1967" as="sourcePoint" />
            <mxPoint x="-1147" y="-1897" as="targetPoint" />
          </mxGeometry>
        </mxCell>
        <mxCell id="_CCxvdS052Tjwk7bX98a-33" value="Provide nutrient" style="rounded=1;whiteSpace=wrap;html=1;fontSize=12;glass=0;strokeWidth=1;shadow=0;fontStyle=0" parent="1" vertex="1">
          <mxGeometry x="-1320" y="-1707" width="120" height="40" as="geometry" />
        </mxCell>
        <mxCell id="hfwpZv5Ivynmt4T3Qo2l-29" value="" style="edgeStyle=orthogonalEdgeStyle;rounded=0;orthogonalLoop=1;jettySize=auto;html=1;endArrow=classic;endFill=1;" parent="1" source="_CCxvdS052Tjwk7bX98a-38" target="hfwpZv5Ivynmt4T3Qo2l-28" edge="1">
          <mxGeometry relative="1" as="geometry" />
        </mxCell>
        <mxCell id="_CCxvdS052Tjwk7bX98a-38" value="Fetch symptoms" style="rounded=1;whiteSpace=wrap;html=1;fontSize=12;glass=0;strokeWidth=1;shadow=0;fontStyle=0" parent="1" vertex="1">
          <mxGeometry x="-1320" y="-2095" width="120" height="40" as="geometry" />
        </mxCell>
        <mxCell id="_CCxvdS052Tjwk7bX98a-39" value="No symptoms" style="rounded=1;whiteSpace=wrap;html=1;fontSize=12;glass=0;strokeWidth=1;shadow=0;fontStyle=0" parent="1" vertex="1">
          <mxGeometry x="-1161" y="-2190" width="120" height="40" as="geometry" />
        </mxCell>
        <mxCell id="hfwpZv5Ivynmt4T3Qo2l-31" value="No" style="edgeStyle=orthogonalEdgeStyle;rounded=0;orthogonalLoop=1;jettySize=auto;html=1;endArrow=classic;endFill=1;" parent="1" source="hfwpZv5Ivynmt4T3Qo2l-28" target="_CCxvdS052Tjwk7bX98a-27" edge="1">
          <mxGeometry relative="1" as="geometry" />
        </mxCell>
        <mxCell id="hfwpZv5Ivynmt4T3Qo2l-32" value="Yes" style="edgeStyle=orthogonalEdgeStyle;rounded=0;orthogonalLoop=1;jettySize=auto;html=1;endArrow=classic;endFill=1;" parent="1" source="hfwpZv5Ivynmt4T3Qo2l-28" target="_CCxvdS052Tjwk7bX98a-22" edge="1">
          <mxGeometry x="0.0118" relative="1" as="geometry">
            <mxPoint x="-1260" y="-1890" as="targetPoint" />
            <mxPoint as="offset" />
          </mxGeometry>
        </mxCell>
        <mxCell id="hfwpZv5Ivynmt4T3Qo2l-28" value="&lt;span style=&quot;font-size: 11px;&quot;&gt;Are there conditions?&lt;/span&gt;" style="rhombus;whiteSpace=wrap;html=1;" parent="1" vertex="1">
          <mxGeometry x="-1310" y="-2020" width="100" height="80" as="geometry" />
        </mxCell>
        <mxCell id="P1usZskkgcoXc8vzDnr5-8" value="No" style="edgeStyle=orthogonalEdgeStyle;rounded=0;orthogonalLoop=1;jettySize=auto;html=1;exitX=0.5;exitY=1;exitDx=0;exitDy=0;" parent="1" source="P1usZskkgcoXc8vzDnr5-21" target="P1usZskkgcoXc8vzDnr5-11" edge="1">
          <mxGeometry x="-0.6" relative="1" as="geometry">
            <mxPoint as="offset" />
          </mxGeometry>
        </mxCell>
        <mxCell id="P1usZskkgcoXc8vzDnr5-9" value="" style="rounded=1;whiteSpace=wrap;html=1;dashed=1;fillColor=none;" parent="1" vertex="1">
          <mxGeometry x="-2040" y="-2120" width="350" height="520" as="geometry" />
        </mxCell>
        <mxCell id="P1usZskkgcoXc8vzDnr5-10" value="User start" style="rounded=1;whiteSpace=wrap;html=1;fontSize=12;glass=0;strokeWidth=1;shadow=0;fontStyle=1" parent="1" vertex="1">
          <mxGeometry x="-1920" y="-2180" width="120" height="40" as="geometry" />
        </mxCell>
        <mxCell id="P1usZskkgcoXc8vzDnr5-11" value="Diagnosis" style="rounded=1;whiteSpace=wrap;html=1;fontSize=12;glass=0;strokeWidth=1;shadow=0;fontStyle=1" parent="1" vertex="1">
          <mxGeometry x="-1920" y="-1570" width="120" height="40" as="geometry" />
        </mxCell>
        <mxCell id="P1usZskkgcoXc8vzDnr5-12" value="Yes" style="edgeStyle=orthogonalEdgeStyle;rounded=0;orthogonalLoop=1;jettySize=auto;html=1;exitX=0;exitY=0.5;exitDx=0;exitDy=0;" parent="1" source="P1usZskkgcoXc8vzDnr5-14" target="P1usZskkgcoXc8vzDnr5-16" edge="1">
          <mxGeometry x="-0.6" relative="1" as="geometry">
            <mxPoint as="offset" />
          </mxGeometry>
        </mxCell>
        <mxCell id="P1usZskkgcoXc8vzDnr5-13" value="No" style="edgeStyle=orthogonalEdgeStyle;rounded=0;orthogonalLoop=1;jettySize=auto;html=1;exitX=1;exitY=0.5;exitDx=0;exitDy=0;" parent="1" source="P1usZskkgcoXc8vzDnr5-14" target="P1usZskkgcoXc8vzDnr5-23" edge="1">
          <mxGeometry x="-0.6667" relative="1" as="geometry">
            <mxPoint as="offset" />
          </mxGeometry>
        </mxCell>
        <mxCell id="P1usZskkgcoXc8vzDnr5-14" value="&lt;span style=&quot;font-size: 11px;&quot;&gt;Does it have a color?&lt;/span&gt;" style="rhombus;whiteSpace=wrap;html=1;" parent="1" vertex="1">
          <mxGeometry x="-1910" y="-1900" width="100" height="80" as="geometry" />
        </mxCell>
        <mxCell id="P1usZskkgcoXc8vzDnr5-15" value="" style="edgeStyle=orthogonalEdgeStyle;rounded=0;orthogonalLoop=1;jettySize=auto;html=1;endArrow=classic;endFill=1;" parent="1" source="P1usZskkgcoXc8vzDnr5-16" target="P1usZskkgcoXc8vzDnr5-21" edge="1">
          <mxGeometry relative="1" as="geometry">
            <mxPoint x="-1860" y="-1690" as="targetPoint" />
          </mxGeometry>
        </mxCell>
        <mxCell id="P1usZskkgcoXc8vzDnr5-16" value="Symptom with color" style="rounded=1;whiteSpace=wrap;html=1;fontSize=12;glass=0;strokeWidth=1;shadow=0;" parent="1" vertex="1">
          <mxGeometry x="-2000" y="-1800" width="120" height="40" as="geometry" />
        </mxCell>
        <mxCell id="P1usZskkgcoXc8vzDnr5-17" value="" style="edgeStyle=orthogonalEdgeStyle;rounded=0;orthogonalLoop=1;jettySize=auto;html=1;" parent="1" source="P1usZskkgcoXc8vzDnr5-18" target="P1usZskkgcoXc8vzDnr5-26" edge="1">
          <mxGeometry relative="1" as="geometry" />
        </mxCell>
        <mxCell id="P1usZskkgcoXc8vzDnr5-18" value="&lt;span style=&quot;font-size: 11px;&quot;&gt;How is the symptom manifested?&lt;/span&gt;" style="rhombus;whiteSpace=wrap;html=1;" parent="1" vertex="1">
          <mxGeometry x="-1910" y="-2100" width="100" height="80" as="geometry" />
        </mxCell>
        <mxCell id="P1usZskkgcoXc8vzDnr5-19" value="" style="edgeStyle=orthogonalEdgeStyle;rounded=0;orthogonalLoop=1;jettySize=auto;html=1;exitX=0.5;exitY=1;exitDx=0;exitDy=0;entryX=0.5;entryY=0;entryDx=0;entryDy=0;" parent="1" source="P1usZskkgcoXc8vzDnr5-10" target="P1usZskkgcoXc8vzDnr5-18" edge="1">
          <mxGeometry x="0.5" y="20" relative="1" as="geometry">
            <mxPoint x="-1860" y="-2100" as="targetPoint" />
            <mxPoint x="-1860" y="-2140" as="sourcePoint" />
            <mxPoint as="offset" />
          </mxGeometry>
        </mxCell>
        <mxCell id="P1usZskkgcoXc8vzDnr5-20" value="Yes" style="edgeStyle=orthogonalEdgeStyle;rounded=0;orthogonalLoop=1;jettySize=auto;html=1;exitX=0;exitY=0.5;exitDx=0;exitDy=0;entryX=0;entryY=0.5;entryDx=0;entryDy=0;" parent="1" source="P1usZskkgcoXc8vzDnr5-21" target="P1usZskkgcoXc8vzDnr5-18" edge="1">
          <mxGeometry x="-0.9355" relative="1" as="geometry">
            <mxPoint x="-2040" y="-1680" as="sourcePoint" />
            <mxPoint x="-1790" y="-1630" as="targetPoint" />
            <Array as="points">
              <mxPoint x="-2020" y="-1660" />
              <mxPoint x="-2020" y="-2060" />
            </Array>
            <mxPoint as="offset" />
          </mxGeometry>
        </mxCell>
        <mxCell id="P1usZskkgcoXc8vzDnr5-21" value="&lt;span style=&quot;font-size: 11px;&quot;&gt;New symptom?&lt;/span&gt;" style="rhombus;whiteSpace=wrap;html=1;" parent="1" vertex="1">
          <mxGeometry x="-1910" y="-1700" width="100" height="80" as="geometry" />
        </mxCell>
        <mxCell id="P1usZskkgcoXc8vzDnr5-22" value="" style="edgeStyle=orthogonalEdgeStyle;rounded=0;orthogonalLoop=1;jettySize=auto;html=1;endArrow=classic;endFill=1;" parent="1" source="P1usZskkgcoXc8vzDnr5-23" target="P1usZskkgcoXc8vzDnr5-21" edge="1">
          <mxGeometry relative="1" as="geometry">
            <mxPoint x="-1860" y="-1690" as="targetPoint" />
          </mxGeometry>
        </mxCell>
        <mxCell id="P1usZskkgcoXc8vzDnr5-23" value="Symptom" style="rounded=1;whiteSpace=wrap;html=1;fontSize=12;glass=0;strokeWidth=1;shadow=0;" parent="1" vertex="1">
          <mxGeometry x="-1840" y="-1800" width="120" height="40" as="geometry" />
        </mxCell>
        <mxCell id="P1usZskkgcoXc8vzDnr5-24" value="Symptomatology" style="text;html=1;strokeColor=none;fillColor=none;align=left;verticalAlign=middle;whiteSpace=wrap;rounded=0;fontStyle=1" parent="1" vertex="1">
          <mxGeometry x="-2020" y="-1630" width="110" height="30" as="geometry" />
        </mxCell>
        <mxCell id="P1usZskkgcoXc8vzDnr5-25" value="" style="edgeStyle=orthogonalEdgeStyle;rounded=0;orthogonalLoop=1;jettySize=auto;html=1;" parent="1" source="P1usZskkgcoXc8vzDnr5-26" target="P1usZskkgcoXc8vzDnr5-14" edge="1">
          <mxGeometry relative="1" as="geometry" />
        </mxCell>
        <mxCell id="P1usZskkgcoXc8vzDnr5-26" value="Current manifestation" style="rounded=1;whiteSpace=wrap;html=1;fontSize=12;glass=0;strokeWidth=1;shadow=0;" parent="1" vertex="1">
          <mxGeometry x="-1920" y="-1980" width="120" height="40" as="geometry" />
        </mxCell>
        <mxCell id="xxoH9SlKIbpuFdjFSltU-2" value="" style="rounded=1;whiteSpace=wrap;html=1;dashed=1;fillColor=none;" parent="1" vertex="1">
          <mxGeometry x="-1338" y="-1928" width="462" height="294" as="geometry" />
        </mxCell>
        <mxCell id="xxoH9SlKIbpuFdjFSltU-4" value="Treatments" style="text;html=1;strokeColor=none;fillColor=none;align=left;verticalAlign=middle;whiteSpace=wrap;rounded=0;fontStyle=1" parent="1" vertex="1">
          <mxGeometry x="-971" y="-1922" width="110" height="30" as="geometry" />
        </mxCell>
      </root>
    </mxGraphModel>
  </diagram>
</mxfile>
